<?xml version="1.0" encoding="utf-8"?>
<!-- Generator: Adobe Illustrator 16.0.0, SVG Export Plug-In . SVG Version: 6.00 Build 0)  -->
<!DOCTYPE svg PUBLIC "-//W3C//DTD SVG 1.1//EN" "http://www.w3.org/Graphics/SVG/1.1/DTD/svg11.dtd">
<svg version="1.1" xmlns="http://www.w3.org/2000/svg" xmlns:xlink="http://www.w3.org/1999/xlink" x="0px" y="0px" width="1280px"
	 height="400px" viewBox="0 0 1280 400" enable-background="new 0 0 1280 400" xml:space="preserve">
<g id="Layer_1">
	<path fill="#333333" d="M1075.852,187.933c0-22.377-18.144-40.52-40.521-40.52c-22.379,0-40.522,18.143-40.522,40.52
		c0,33.279,31.872,36.797,40.522,87.408C1043.981,224.729,1075.852,221.21,1075.852,187.933z M1020.797,186.951
		c0-8.027,6.506-14.534,14.533-14.534c8.026,0,14.533,6.506,14.533,14.534c0,8.024-6.507,14.531-14.533,14.531
		C1027.303,201.482,1020.797,194.976,1020.797,186.951z"/>
	<path fill="#333333" d="M1251.361,123.774c0-38.802-31.459-70.262-70.264-70.262c-38.806,0-70.268,31.459-70.268,70.262
		c0,57.705,55.267,63.807,70.268,151.567C1196.099,187.577,1251.361,181.479,1251.361,123.774z M1155.897,122.072
		c0-13.917,11.281-25.201,25.2-25.201c13.916,0,25.199,11.284,25.199,25.201c0,13.915-11.281,25.198-25.199,25.198
		C1167.179,147.27,1155.897,135.987,1155.897,122.072z"/>
	<path fill="#333333" d="M1067.628,246.368c4.541-6.605,9.63-12.229,14.45-18.88l26.025,17.013c0,0,16.949-9.99,30.497-17.971
		c3.858,6.349,7.452,13.357,10.586,21.421c-15.408,9.245-40.644,24.516-40.644,24.516L1067.628,246.368z"/>
	<path fill="#333333" d="M1274.312,351.18l-91.215-33.008l-74.202,33.008l-73.675-33.008l-87.299,33.008l53.524-106.508l0.299-0.131
		c5.171,7.179,9.726,15.312,12.649,27.295l-17.871,35.56l39.463-14.922l65.645,29.41l6.912-32.797l7.619,32.851l66.021-29.37
		l44.233,16.008l-19.817-39.604c2.825-12.263,6.585-22.451,10.907-31.312L1274.312,351.18z"/>
</g>
<g id="Layer_2">
	<text transform="matrix(1 0 0 1 2.7441 271.7529)" fill="#333333" font-family="'Musket'" font-size="158.7998">SpaceShare</text>
</g>
</svg>
